<!-- Generated by IcoMoon.io -->
<svg version="1.1" xmlns="http://www.w3.org/2000/svg" width="16" height="16" viewBox="0 0 16 16">
<title>googleplay</title>
<path fill="#607d8b" d="M0.813 0c-0.020 0.062-0.040 0.123-0.040 0.205v15.486c0 0.145 0.041 0.227 0.123 0.309l7.61-8.062-7.693-7.938zM9.019 8.472l1.967 2.030-2.809 1.6s-3.57 2.029-5.539 3.159l6.38-6.789zM9.553 7.918l2.111 2.195c0.331-0.184 2.914-1.661 3.283-1.867 0.389-0.225 0.35-0.533 0.019-0.697-0.306-0.17-2.889-1.65-3.28-1.89l-2.133 2.259zM9.018 7.385l1.989-2.113-2.839-1.621s-4.629-2.648-6.169-3.532l7.019 7.265z"></path>
</svg>
