<!-- Generated by IcoMoon.io -->
<svg version="1.1" xmlns="http://www.w3.org/2000/svg" width="16" height="16" viewBox="0 0 16 16">
<title>podcast2</title>
<path d="M8 0c-4.418 0-8 3.582-8 8 0 2.209 0.895 4.209 2.343 5.657l0.707-0.707c-1.267-1.267-2.050-3.017-2.050-4.95 0-3.866 3.134-7 7-7s7 3.134 7 7c0 1.933-0.784 3.683-2.050 4.95l0.707 0.707c1.448-1.448 2.343-3.448 2.343-5.657 0-4.418-3.582-8-8-8zM8 3c-2.761 0-5 2.239-5 5 0 1.381 0.56 2.631 1.464 3.536l0.707-0.707c-0.724-0.724-1.171-1.724-1.171-2.828 0-2.209 1.791-4 4-4s3.999 1.791 3.999 4c0 1.104-0.448 2.104-1.171 2.828l0.707 0.707c0.905-0.905 1.464-2.155 1.464-3.536 0-2.761-2.239-5-5-5v0zM9.414 9.414c0.362-0.362 0.586-0.862 0.586-1.414 0-1.105-0.895-2-2-2s-2 0.895-2 2c0 0.552 0.224 1.052 0.586 1.414l0.707-0.707c-0.181-0.181-0.293-0.431-0.293-0.707 0-0.552 0.448-1 1-1s1 0.448 1 1c0 0.276-0.112 0.526-0.293 0.707l0.707 0.707zM7.625 9l-2.625 7h6l-2.625-7h-0.75z"></path>
</svg>
